{
  "asset": {
    "version": "2.0",
    "generator": "THREE.GLTFExporter r179"
  },
  "scenes": [
    {
      "name": "windkraftwerk_gltf_scene",
      "nodes": [
        0
      ]
    }
  ],
  "scene": 0,
  "nodes": [
    {
      "matrix": [
        0.4226182617406993,
        0.90630778703665,
        0,
        0,
        -0.90630778703665,
        0.4226182617406993,
        0,
        0,
        0,
        0,
        1,
        0,
        0,
        0,
        0,
        1
      ],
      "name": "windkraftwerk_internal_low_poly",
      "extras": {
        "source": "D:/Codex/Projekte/ropw-gemeinden-map/src/windTurbineLayer.ts",
        "hubHeightM": 165,
        "rotorDiameterM": 170,
        "towerRadiusM": 4,
        "yawDeg": 25
      },
      "children": [
        1,
        2,
        3,
        4,
        11
      ]
    },
    {
      "matrix": [
        1,
        0,
        0,
        0,
        0,
        2.220446049250313e-16,
        1,
        0,
        0,
        -1,
        2.220446049250313e-16,
        0,
        0,
        0,
        82.5,
        1
      ],
      "name": "tapered_tower",
      "mesh": 0
    },
    {
      "matrix": [
        1,
        0,
        0,
        0,
        0,
        1,
        0,
        0,
        0,
        0,
        1,
        0,
        4,
        0,
        165,
        1
      ],
      "name": "nacelle",
      "mesh": 1
    },
    {
      "matrix": [
        1,
        0,
        0,
        0,
        0,
        1,
        0,
        0,
        0,
        0,
        1,
        0,
        16,
        0,
        165,
        1
      ],
      "name": "rotor_hub",
      "mesh": 2
    },
    {
      "matrix": [
        1,
        0,
        0,
        0,
        0,
        0.9510565162951535,
        0.30901699437494745,
        0,
        0,
        -0.30901699437494745,
        0.9510565162951535,
        0,
        16,
        0,
        165,
        1
      ],
      "name": "rotor_three_blades",
      "children": [
        5,
        7,
        9
      ]
    },
    {
      "name": "rotor_blade_1",
      "children": [
        6
      ]
    },
    {
      "name": "rotor_blade_low_poly",
      "mesh": 3
    },
    {
      "matrix": [
        1,
        0,
        0,
        0,
        0,
        -0.4999999999999998,
        0.8660254037844388,
        0,
        0,
        -0.8660254037844388,
        -0.4999999999999998,
        0,
        0,
        0,
        0,
        1
      ],
      "name": "rotor_blade_2",
      "children": [
        8
      ]
    },
    {
      "name": "rotor_blade_low_poly",
      "mesh": 4
    },
    {
      "matrix": [
        1,
        0,
        0,
        0,
        0,
        -0.5000000000000002,
        -0.8660254037844384,
        0,
        0,
        0.8660254037844384,
        -0.5000000000000002,
        0,
        0,
        0,
        0,
        1
      ],
      "name": "rotor_blade_3",
      "children": [
        10
      ]
    },
    {
      "name": "rotor_blade_low_poly",
      "mesh": 5
    },
    {
      "matrix": [
        1,
        0,
        0,
        0,
        0,
        2.220446049250313e-16,
        1,
        0,
        0,
        -1,
        2.220446049250313e-16,
        0,
        0,
        0,
        1,
        1
      ],
      "name": "map_marker_base",
      "mesh": 6
    }
  ],
  "bufferViews": [
    {
      "buffer": 0,
      "byteOffset": 0,
      "byteLength": 912,
      "target": 34962,
      "byteStride": 12
    },
    {
      "buffer": 0,
      "byteOffset": 912,
      "byteLength": 912,
      "target": 34962,
      "byteStride": 12
    },
    {
      "buffer": 0,
      "byteOffset": 1824,
      "byteLength": 608,
      "target": 34962,
      "byteStride": 8
    },
    {
      "buffer": 0,
      "byteOffset": 2432,
      "byteLength": 288,
      "target": 34963
    },
    {
      "buffer": 0,
      "byteOffset": 2720,
      "byteLength": 288,
      "target": 34962,
      "byteStride": 12
    },
    {
      "buffer": 0,
      "byteOffset": 3008,
      "byteLength": 288,
      "target": 34962,
      "byteStride": 12
    },
    {
      "buffer": 0,
      "byteOffset": 3296,
      "byteLength": 192,
      "target": 34962,
      "byteStride": 8
    },
    {
      "buffer": 0,
      "byteOffset": 3488,
      "byteLength": 72,
      "target": 34963
    },
    {
      "buffer": 0,
      "byteOffset": 3560,
      "byteLength": 2652,
      "target": 34962,
      "byteStride": 12
    },
    {
      "buffer": 0,
      "byteOffset": 6212,
      "byteLength": 2652,
      "target": 34962,
      "byteStride": 12
    },
    {
      "buffer": 0,
      "byteOffset": 8864,
      "byteLength": 1768,
      "target": 34962,
      "byteStride": 8
    },
    {
      "buffer": 0,
      "byteOffset": 10632,
      "byteLength": 2112,
      "target": 34963
    },
    {
      "buffer": 0,
      "byteOffset": 12744,
      "byteLength": 96,
      "target": 34962,
      "byteStride": 12
    },
    {
      "buffer": 0,
      "byteOffset": 12840,
      "byteLength": 96,
      "target": 34962,
      "byteStride": 12
    },
    {
      "buffer": 0,
      "byteOffset": 12936,
      "byteLength": 72,
      "target": 34963
    },
    {
      "buffer": 0,
      "byteOffset": 13008,
      "byteLength": 96,
      "target": 34962,
      "byteStride": 12
    },
    {
      "buffer": 0,
      "byteOffset": 13104,
      "byteLength": 96,
      "target": 34962,
      "byteStride": 12
    },
    {
      "buffer": 0,
      "byteOffset": 13200,
      "byteLength": 72,
      "target": 34963
    },
    {
      "buffer": 0,
      "byteOffset": 13272,
      "byteLength": 96,
      "target": 34962,
      "byteStride": 12
    },
    {
      "buffer": 0,
      "byteOffset": 13368,
      "byteLength": 96,
      "target": 34962,
      "byteStride": 12
    },
    {
      "buffer": 0,
      "byteOffset": 13464,
      "byteLength": 72,
      "target": 34963
    },
    {
      "buffer": 0,
      "byteOffset": 13536,
      "byteLength": 1200,
      "target": 34962,
      "byteStride": 12
    },
    {
      "buffer": 0,
      "byteOffset": 14736,
      "byteLength": 1200,
      "target": 34962,
      "byteStride": 12
    },
    {
      "buffer": 0,
      "byteOffset": 15936,
      "byteLength": 800,
      "target": 34962,
      "byteStride": 8
    },
    {
      "buffer": 0,
      "byteOffset": 16736,
      "byteLength": 384,
      "target": 34963
    }
  ],
  "buffers": [
    {
      "byteLength": 17120,
      "uri": "data:application/octet-stream;base64,"
    }
  ],
  "accessors": [
    {
      "bufferView": 0,
      "componentType": 5126,
      "count": 76,
      "max": [
        4,
        82.5,
        4
      ],
      "min": [
        -4,
        -82.5,
        -4
      ],
      "type": "VEC3"
    },
    {
      "bufferView": 1,
      "componentType": 5126,
      "count": 76,
      "max": [
        0.9999575614929199,
        1,
        0.9999575614929199
      ],
      "min": [
        -0.9999575614929199,
        -1,
        -0.9999575614929199
      ],
      "type": "VEC3"
    },
    {
      "bufferView": 2,
      "componentType": 5126,
      "count": 76,
      "max": [
        1,
        1
      ],
      "min": [
        0,
        0
      ],
      "type": "VEC2"
    },
    {
      "bufferView": 3,
      "componentType": 5123,
      "count": 144,
      "max": [
        75
      ],
      "min": [
        0
      ],
      "type": "SCALAR"
    },
    {
      "bufferView": 4,
      "componentType": 5126,
      "count": 24,
      "max": [
        9,
        3,
        3
      ],
      "min": [
        -9,
        -3,
        -3
      ],
      "type": "VEC3"
    },
    {
      "bufferView": 5,
      "componentType": 5126,
      "count": 24,
      "max": [
        1,
        1,
        1
      ],
      "min": [
        -1,
        -1,
        -1
      ],
      "type": "VEC3"
    },
    {
      "bufferView": 6,
      "componentType": 5126,
      "count": 24,
      "max": [
        1,
        1
      ],
      "min": [
        0,
        0
      ],
      "type": "VEC2"
    },
    {
      "bufferView": 7,
      "componentType": 5123,
      "count": 36,
      "max": [
        23
      ],
      "min": [
        0
      ],
      "type": "SCALAR"
    },
    {
      "bufferView": 8,
      "componentType": 5126,
      "count": 221,
      "max": [
        3.5999999046325684,
        3.5999999046325684,
        3.5999999046325684
      ],
      "min": [
        -3.5999999046325684,
        -3.5999999046325684,
        -3.5999999046325684
      ],
      "type": "VEC3"
    },
    {
      "bufferView": 9,
      "componentType": 5126,
      "count": 221,
      "max": [
        1,
        1,
        1
      ],
      "min": [
        -1,
        -1,
        -1
      ],
      "type": "VEC3"
    },
    {
      "bufferView": 10,
      "componentType": 5126,
      "count": 221,
      "max": [
        1.03125,
        1
      ],
      "min": [
        -0.03125,
        0
      ],
      "type": "VEC2"
    },
    {
      "bufferView": 11,
      "componentType": 5123,
      "count": 1056,
      "max": [
        220
      ],
      "min": [
        0
      ],
      "type": "SCALAR"
    },
    {
      "bufferView": 12,
      "componentType": 5126,
      "count": 8,
      "max": [
        0.4000000059604645,
        2.0999999046325684,
        85
      ],
      "min": [
        -0.4000000059604645,
        -2.0999999046325684,
        0
      ],
      "type": "VEC3"
    },
    {
      "bufferView": 13,
      "componentType": 5126,
      "count": 8,
      "max": [
        0.9883610010147095,
        0.8478122353553772,
        0.01088862493634224
      ],
      "min": [
        -0.9883610010147095,
        -0.8478122353553772,
        -0.020945949479937553
      ],
      "type": "VEC3"
    },
    {
      "bufferView": 14,
      "componentType": 5123,
      "count": 36,
      "max": [
        7
      ],
      "min": [
        0
      ],
      "type": "SCALAR"
    },
    {
      "bufferView": 15,
      "componentType": 5126,
      "count": 8,
      "max": [
        0.4000000059604645,
        2.0999999046325684,
        85
      ],
      "min": [
        -0.4000000059604645,
        -2.0999999046325684,
        0
      ],
      "type": "VEC3"
    },
    {
      "bufferView": 16,
      "componentType": 5126,
      "count": 8,
      "max": [
        0.9883610010147095,
        0.8478122353553772,
        0.01088862493634224
      ],
      "min": [
        -0.9883610010147095,
        -0.8478122353553772,
        -0.020945949479937553
      ],
      "type": "VEC3"
    },
    {
      "bufferView": 17,
      "componentType": 5123,
      "count": 36,
      "max": [
        7
      ],
      "min": [
        0
      ],
      "type": "SCALAR"
    },
    {
      "bufferView": 18,
      "componentType": 5126,
      "count": 8,
      "max": [
        0.4000000059604645,
        2.0999999046325684,
        85
      ],
      "min": [
        -0.4000000059604645,
        -2.0999999046325684,
        0
      ],
      "type": "VEC3"
    },
    {
      "bufferView": 19,
      "componentType": 5126,
      "count": 8,
      "max": [
        0.9883610010147095,
        0.8478122353553772,
        0.01088862493634224
      ],
      "min": [
        -0.9883610010147095,
        -0.8478122353553772,
        -0.020945949479937553
      ],
      "type": "VEC3"
    },
    {
      "bufferView": 20,
      "componentType": 5123,
      "count": 36,
      "max": [
        7
      ],
      "min": [
        0
      ],
      "type": "SCALAR"
    },
    {
      "bufferView": 21,
      "componentType": 5126,
      "count": 100,
      "max": [
        8,
        1,
        8
      ],
      "min": [
        -8,
        -1,
        -8
      ],
      "type": "VEC3"
    },
    {
      "bufferView": 22,
      "componentType": 5126,
      "count": 100,
      "max": [
        1,
        1,
        1
      ],
      "min": [
        -1,
        -1,
        -1
      ],
      "type": "VEC3"
    },
    {
      "bufferView": 23,
      "componentType": 5126,
      "count": 100,
      "max": [
        1,
        1
      ],
      "min": [
        0,
        0
      ],
      "type": "VEC2"
    },
    {
      "bufferView": 24,
      "componentType": 5123,
      "count": 192,
      "max": [
        99
      ],
      "min": [
        0
      ],
      "type": "SCALAR"
    }
  ],
  "materials": [
    {
      "pbrMetallicRoughness": {
        "baseColorFactor": [
          0.5209955731953768,
          0.5711248294565854,
          0.6375968739867731,
          1
        ],
        "metallicFactor": 0.12,
        "roughnessFactor": 0.7
      },
      "name": "tower_galvanized_gray"
    },
    {
      "pbrMetallicRoughness": {
        "baseColorFactor": [
          0.7083757798856457,
          0.76052450467022,
          0.8227857543924378,
          1
        ],
        "metallicFactor": 0.12,
        "roughnessFactor": 0.65
      },
      "name": "nacelle_light_gray"
    },
    {
      "pbrMetallicRoughness": {
        "baseColorFactor": [
          0.9386857284565036,
          0.9559733532482866,
          0.9734452903978066,
          1
        ],
        "metallicFactor": 0.08,
        "roughnessFactor": 0.55
      },
      "name": "hub_white"
    },
    {
      "pbrMetallicRoughness": {
        "baseColorFactor": [
          0.9386857284565036,
          0.9559733532482866,
          0.9734452903978066,
          1
        ],
        "metallicFactor": 0.04,
        "roughnessFactor": 0.72
      },
      "name": "blade_white"
    },
    {
      "pbrMetallicRoughness": {
        "baseColorFactor": [
          0.9386857284565036,
          0.9559733532482866,
          0.9734452903978066,
          1
        ],
        "metallicFactor": 0.04,
        "roughnessFactor": 0.72
      },
      "name": "blade_white"
    },
    {
      "pbrMetallicRoughness": {
        "baseColorFactor": [
          0.9386857284565036,
          0.9559733532482866,
          0.9734452903978066,
          1
        ],
        "metallicFactor": 0.04,
        "roughnessFactor": 0.72
      },
      "name": "blade_white"
    },
    {
      "pbrMetallicRoughness": {
        "baseColorFactor": [
          0.004776953478513362,
          0.181164244239483,
          0.15592646369776456,
          1
        ],
        "metallicFactor": 0,
        "roughnessFactor": 0.9
      },
      "name": "map_marker_base_teal",
      "extensions": {
        "KHR_materials_unlit": {}
      }
    }
  ],
  "meshes": [
    {
      "primitives": [
        {
          "mode": 4,
          "attributes": {
            "POSITION": 0,
            "NORMAL": 1,
            "TEXCOORD_0": 2
          },
          "indices": 3,
          "material": 0
        }
      ]
    },
    {
      "primitives": [
        {
          "mode": 4,
          "attributes": {
            "POSITION": 4,
            "NORMAL": 5,
            "TEXCOORD_0": 6
          },
          "indices": 7,
          "material": 1
        }
      ]
    },
    {
      "primitives": [
        {
          "mode": 4,
          "attributes": {
            "POSITION": 8,
            "NORMAL": 9,
            "TEXCOORD_0": 10
          },
          "indices": 11,
          "material": 2
        }
      ]
    },
    {
      "primitives": [
        {
          "mode": 4,
          "attributes": {
            "POSITION": 12,
            "NORMAL": 13
          },
          "indices": 14,
          "material": 3
        }
      ]
    },
    {
      "primitives": [
        {
          "mode": 4,
          "attributes": {
            "POSITION": 15,
            "NORMAL": 16
          },
          "indices": 17,
          "material": 4
        }
      ]
    },
    {
      "primitives": [
        {
          "mode": 4,
          "attributes": {
            "POSITION": 18,
            "NORMAL": 19
          },
          "indices": 20,
          "material": 5
        }
      ]
    },
    {
      "primitives": [
        {
          "mode": 4,
          "attributes": {
            "POSITION": 21,
            "NORMAL": 22,
            "TEXCOORD_0": 23
          },
          "indices": 24,
          "material": 6
        }
      ]
    }
  ],
  "extensionsUsed": [
    "KHR_materials_unlit"
  ]
}